<svg width="48" height="52" viewBox="0 0 48 52" fill="none" xmlns="http://www.w3.org/2000/svg">
<path d="M42.564 14.5827L24.6875 24.9027C24.0552 25.268 23.2765 25.268 22.6453 24.9027L4.90573 14.6614C3.54373 13.8747 3.54373 11.9107 4.90573 11.1241L22.7817 0.8027C23.414 0.4387 24.1927 0.4387 24.8245 0.8027L42.564 11.0453C43.9255 11.8307 43.9255 13.796 42.564 14.5827Z" fill="#F35CA3"/>
<path d="M19.2995 51.2693L1.4224 40.9479C0.790666 40.5826 0.401066 39.9093 0.401066 39.1786V18.6946C0.401066 17.1239 2.10267 16.14 3.46453 16.9266L21.3412 27.2466C21.9735 27.6133 22.3625 28.2866 22.3625 29.016V49.5013C22.3625 51.0719 20.6609 52.0546 19.2995 51.2693Z" fill="#F35CA3"/>
<path d="M46.0469 40.9479L28.1697 51.2693C26.8084 52.0546 25.1068 51.0719 25.1068 49.5013V29.016C25.1068 28.2866 25.4964 27.6133 26.1281 27.2466L44.0047 16.9266C45.3667 16.14 47.0677 17.1239 47.0677 18.6946V39.1786C47.0677 39.9093 46.6792 40.5826 46.0469 40.9479Z" fill="#F35CA3"/>
</svg>
