<svg width="47" height="31" viewBox="0 0 47 31" fill="none" xmlns="http://www.w3.org/2000/svg">
<path d="M15.4651 3.74804C8.91359 3.74804 3.58279 9.07866 3.58279 15.6307C3.58279 22.1813 8.91359 27.512 15.4651 27.512C22.0173 27.512 27.3467 22.1813 27.3467 15.6307C27.3467 9.07866 22.0173 3.74804 15.4651 3.74804V3.74804ZM15.4651 30.7921C7.10412 30.7921 0.302124 23.9907 0.302124 15.6307C0.302124 7.26933 7.10412 0.466664 15.4651 0.466664C23.8253 0.466664 30.628 7.26933 30.628 15.6307C30.628 23.9907 23.8253 30.7921 15.4651 30.7921Z" fill="#4179A0"/>
<path d="M31.3707 3.74804C24.8187 3.74804 19.4885 9.07866 19.4885 15.6307C19.4885 22.1813 24.8187 27.512 31.3707 27.512C37.9227 27.512 43.252 22.1813 43.252 15.6307C43.252 9.07866 37.9227 3.74804 31.3707 3.74804ZM31.3707 30.7921C23.0094 30.7921 16.2079 23.9907 16.2079 15.6307C16.2079 7.26933 23.0094 0.466664 31.3707 0.466664C39.7307 0.466664 46.5334 7.26933 46.5334 15.6307C46.5334 23.9907 39.7307 30.7921 31.3707 30.7921Z" fill="#4179A0"/>
</svg>
