<svg width="385" height="385" viewBox="0 0 385 385" fill="none" xmlns="http://www.w3.org/2000/svg">
<path d="M191.602 0.000234111C140.703 0.237762 91.9707 20.6238 56.064 56.6988C20.1573 92.7738 -0.000554224 141.601 1.14286e-08 192.5C1.14287e-08 243.554 20.2812 292.518 56.3819 328.618C92.4827 364.719 141.446 385 192.5 385C243.554 385 292.517 364.719 328.618 328.618C364.719 292.518 385 243.554 385 192.5C385 141.446 364.719 92.4829 328.618 56.3822C292.517 20.2814 243.554 0.000234111 192.5 0.000234111C192.201 -0.000464593 191.901 -0.000464593 191.602 0.000234111V0.000234111ZM271.2 115.885C272.805 115.853 276.35 116.254 278.66 118.131C280.195 119.464 281.174 121.325 281.403 123.345C281.66 124.836 281.98 128.253 281.724 130.916C278.836 161.363 266.292 235.219 259.907 269.308C257.212 283.745 251.902 288.574 246.753 289.039C235.588 290.082 227.102 281.66 216.274 274.569C199.334 263.452 189.757 256.539 173.314 245.694C154.305 233.182 166.625 226.284 177.453 215.055C180.292 212.103 229.54 167.299 230.503 163.24C230.615 162.727 230.727 160.834 229.604 159.839C228.481 158.845 226.813 159.182 225.61 159.454C223.91 159.839 196.847 177.742 144.423 213.114C136.723 218.408 129.777 220.974 123.537 220.814C116.671 220.685 103.453 216.948 93.6192 213.755C81.5558 209.825 71.979 207.756 72.8131 201.099C73.2462 197.634 78.0267 194.088 87.1383 190.463C143.252 166.015 180.661 149.894 199.398 142.113C252.849 119.88 263.966 116.014 271.2 115.885V115.885Z" stroke="white" stroke-width="20"/>
</svg>
